<svg width="369pt" height="312pt" viewBox="0.00 0.00 369.00 312.00" xmlns="http://www.w3.org/2000/svg" xmlns:xlink="http://www.w3.org/1999/xlink">
<g id="graph0" class="graph" transform="scale(1 1) rotate(0) translate(4 307.77)">
<title>Extended_DAG</title>
<!-- v1 -->
<g id="node1" class="node">
<title>v1</title>
<polygon fill="#e6f3ff" stroke="black" points="360.57,-169.89 305.05,-169.89 305.05,-133.89 360.57,-133.89 360.57,-169.89"/>
<text xml:space="preserve" text-anchor="start" x="328.84" y="-152.99" font-family="Arial" font-weight="bold" font-size="11.00">A</text>
<text xml:space="preserve" text-anchor="start" x="313.05" y="-143.79" font-family="Arial" font-size="9.00">T=40 V=8</text>
</g>
<!-- v3 -->
<g id="node3" class="node">
<title>v3</title>
<polygon fill="#e6f3ff" stroke="black" points="55.53,-169.89 0,-169.89 0,-133.89 55.53,-133.89 55.53,-169.89"/>
<text xml:space="preserve" text-anchor="start" x="23.79" y="-152.99" font-family="Arial" font-weight="bold" font-size="11.00">C</text>
<text xml:space="preserve" text-anchor="start" x="8" y="-143.79" font-family="Arial" font-size="9.00">T=25 V=6</text>
</g>
<!-- v1&#45;&gt;v3 -->
<g id="edge1" class="edge">
<title>v1-&gt;v3</title>
<path fill="none" stroke="black" d="M304.66,-151.89C249.72,-151.89 128.19,-151.89 66.02,-151.89"/>
<polygon fill="black" stroke="black" points="66.36,-148.74 57.36,-151.89 66.36,-155.04 66.36,-148.74"/>
</g>
<!-- u1 -->
<g id="node5" class="node">
<title>u1</title>
<ellipse fill="#fff0e6" stroke="black" cx="256.55" cy="-283.98" rx="43.86" ry="19.8"/>
<text xml:space="preserve" text-anchor="start" x="245.24" y="-285.08" font-family="Arial" font-weight="bold" font-size="11.00">VM1</text>
<text xml:space="preserve" text-anchor="start" x="233.53" y="-275.88" font-family="Arial" font-size="9.00">F=10 M=16</text>
</g>
<!-- v1&#45;&gt;u1 -->
<g id="edge5" class="edge">
<title>v1-&gt;u1</title>
<path fill="none" stroke="#d95f02" stroke-dasharray="5,2" d="M322.21,-170.25C309.45,-192.35 287.89,-229.69 272.97,-255.53"/>
<polygon fill="#d95f02" stroke="#d95f02" points="270.33,-253.8 268.56,-263.17 275.79,-256.95 270.33,-253.8"/>
</g>
<!-- v2 -->
<g id="node2" class="node">
<title>v2</title>
<polygon fill="#e6f3ff" stroke="black" points="134.29,-301.98 73.76,-301.98 73.76,-265.98 134.29,-265.98 134.29,-301.98"/>
<text xml:space="preserve" text-anchor="start" x="100.05" y="-285.08" font-family="Arial" font-weight="bold" font-size="11.00">B</text>
<text xml:space="preserve" text-anchor="start" x="81.76" y="-275.88" font-family="Arial" font-size="9.00">T=60 V=12</text>
</g>
<!-- v2&#45;&gt;v3 -->
<g id="edge2" class="edge">
<title>v2-&gt;v3</title>
<path fill="none" stroke="black" d="M93.42,-265.61C80.45,-243.13 58.36,-204.88 43.43,-179.02"/>
<polygon fill="black" stroke="black" points="46.26,-177.63 39.03,-171.41 40.81,-180.78 46.26,-177.63"/>
</g>
<!-- v4 -->
<g id="node4" class="node">
<title>v4</title>
<polygon fill="#e6f3ff" stroke="black" points="134.29,-37.8 73.76,-37.8 73.76,-1.8 134.29,-1.8 134.29,-37.8"/>
<text xml:space="preserve" text-anchor="start" x="100.05" y="-20.9" font-family="Arial" font-weight="bold" font-size="11.00">D</text>
<text xml:space="preserve" text-anchor="start" x="81.76" y="-11.7" font-family="Arial" font-size="9.00">T=90 V=18</text>
</g>
<!-- v2&#45;&gt;v4 -->
<g id="edge3" class="edge">
<title>v2-&gt;v4</title>
<path fill="none" stroke="black" d="M104.03,-265.82C104.03,-220.67 104.03,-103.04 104.03,-48.43"/>
<polygon fill="black" stroke="black" points="107.18,-48.6 104.03,-39.6 100.88,-48.6 107.18,-48.6"/>
</g>
<!-- v2&#45;&gt;u1 -->
<g id="edge6" class="edge">
<title>v2-&gt;u1</title>
<path fill="none" stroke="#d95f02" stroke-dasharray="5,2" d="M134.52,-283.98C153.74,-283.98 179.1,-283.98 201.72,-283.98"/>
<polygon fill="#d95f02" stroke="#d95f02" points="201.71,-287.13 210.71,-283.98 201.71,-280.83 201.71,-287.13"/>
</g>
<!-- v3&#45;&gt;v4 -->
<g id="edge4" class="edge">
<title>v3-&gt;v4</title>
<path fill="none" stroke="#999999" stroke-dasharray="5,2" d="M38.37,-133.52C51.34,-111.05 73.43,-72.8 88.36,-46.93"/>
<polygon fill="#999999" stroke="#999999" points="90.98,-48.69 92.76,-39.32 85.53,-45.54 90.98,-48.69"/>
</g>
<!-- u2 -->
<g id="node6" class="node">
<title>u2</title>
<ellipse fill="#fff0e6" stroke="black" cx="256.55" cy="-19.8" rx="43.86" ry="19.8"/>
<text xml:space="preserve" text-anchor="start" x="245.24" y="-20.9" font-family="Arial" font-weight="bold" font-size="11.00">VM2</text>
<text xml:space="preserve" text-anchor="start" x="233.53" y="-11.7" font-family="Arial" font-size="9.00">F=15 M=24</text>
</g>
<!-- v3&#45;&gt;u2 -->
<g id="edge7" class="edge">
<title>v3-&gt;u2</title>
<path fill="none" stroke="#1b9e77" stroke-dasharray="5,2" d="M55.82,-135.69C97.23,-111.78 174.74,-67.03 220.38,-40.68"/>
<polygon fill="#1b9e77" stroke="#1b9e77" points="221.8,-43.5 228.02,-36.27 218.65,-38.04 221.8,-43.5"/>
</g>
<!-- v4&#45;&gt;u2 -->
<g id="edge8" class="edge">
<title>v4-&gt;u2</title>
<path fill="none" stroke="#1b9e77" stroke-dasharray="5,2" d="M134.52,-19.8C153.74,-19.8 179.1,-19.8 201.72,-19.8"/>
<polygon fill="#1b9e77" stroke="#1b9e77" points="201.71,-22.95 210.71,-19.8 201.71,-16.65 201.71,-22.95"/>
</g>
</g>
</svg>